Coordinates
version=1
nRows=24
nColumns=24
inDegrees=yes

Units are S.I. units (second, meters, Newtons, ...)
Angles are in degrees.

endheader
time	pelvis_tilt	pelvis_list	pelvis_rotation	pelvis_tx	pelvis_ty	pelvis_tz	hip_flexion_r	hip_adduction_r	hip_rotation_r	knee_angle_r	ankle_angle_r	subtalar_angle_r	mtp_angle_r	hip_flexion_l	hip_adduction_l	hip_rotation_l	knee_angle_l	ankle_angle_l	subtalar_angle_l	mtp_angle_l	lumbar_extension	lumbar_bending	lumbar_rotation
      2.19000000	     -6.98273681	      4.62725836	    360.91268907	     -0.62267440	      1.37289253	     -1.02869716	     -2.79509698	     -0.46824193	      1.89678483	    -10.93786374	      8.61327012	    -10.38056864	      5.83091353	     21.13939125	      5.47178330	    -10.91052565	      7.05239001	     -7.09701574	     18.87830039	     33.64247669	      7.74931535	     -2.57886705	    112.70179198
      2.19500000	     -6.98046976	      4.79095814	    360.78014003	     -0.61752753	      1.37234433	     -1.02892689	     -3.06273808	     -0.66439424	      2.08745739	    -11.04514359	      8.67609934	    -10.46773349	      5.83283156	     21.26880279	      5.60646949	    -11.15506539	      6.35116023	     -7.14058480	     18.55542009	     33.72807853	      7.75778367	     -2.79164570	    112.73289468
      2.20000000	     -6.95263551	      4.95677776	    360.66790004	     -0.61235780	      1.37183927	     -1.02920809	     -3.35999158	     -0.86688961	      2.22808607	    -11.15250480	      8.72704480	    -10.51739386	      5.90669957	     21.35252943	      5.75171764	    -11.22358550	      5.65972500	     -7.29064185	     17.90149476	     33.75638173	      7.74134599	     -3.00047718	    112.79770953
      2.20500000	     -6.95880669	      5.11583443	    360.58750391	     -0.60714355	      1.37131857	     -1.02953443	     -3.62318896	     -1.06309793	      2.32456559	    -11.26207291	      8.76148990	    -10.56295907	      6.01728321	     21.46636384	      5.90200881	    -11.18508126	      4.96457910	     -7.49509645	     17.11995313	     33.81033285	      7.76789886	     -3.20937662	    112.83258642
      2.21000000	     -6.95760730	      5.27635398	    360.49452821	     -0.60197862	      1.37083513	     -1.02982969	     -3.86640258	     -1.25842010	      2.44431678	    -11.41801077	      8.78925060	    -10.60897276	      6.11772542	     21.56050850	      6.04925309	    -11.12080621	      4.29545156	     -7.78851813	     16.34347680	     33.88010594	      7.77376298	     -3.42676670	    112.86430597
      2.21500000	     -6.98625317	      5.43945977	    360.40683334	     -0.59681080	      1.37036365	     -1.03012864	     -4.05728529	     -1.45531322	      2.56632715	    -11.61211786	      8.80753336	    -10.65259430	      6.20455403	     21.67110946	      6.20312420	    -11.00312419	      3.66001065	     -8.15094260	     15.51812269	     33.96897779	      7.80996239	     -3.64787986	    112.90322736
      2.22000000	     -7.00977338	      5.61055618	    360.33539515	     -0.59163867	      1.36992884	     -1.03044782	     -4.23873025	     -1.66082842	      2.66105883	    -11.83892508	      8.80690938	    -10.68066956	      6.28502530	     21.75120908	      6.37501531	    -10.80726024	      3.07916831	     -8.56422964	     14.64838417	     34.13586131	      7.83610578	     -3.88441135	    112.93515253
      2.22500000	     -7.03309059	      5.76674864	    360.25315187	     -0.58651935	      1.36954167	     -1.03076994	     -4.38736362	     -1.84960393	      2.77303023	    -12.11807871	      8.81114866	    -10.69352457	      6.34969706	     21.81813488	      6.53303535	    -10.62575126	      2.53776678	     -9.04914252	     13.81273804	     34.26968457	      7.85220913	     -4.09543311	    112.96016758
      2.23000000	     -7.11300243	      5.93155672	    360.20328471	     -0.58133581	      1.36915872	     -1.03111648	     -4.45464390	     -2.04639735	      2.84730415	    -12.44631930	      8.78173192	    -10.70711958	      6.42633981	     21.91950938	      6.71112924	    -10.35607187	      2.04909683	     -9.55497303	     12.95410469	     34.52137457	      7.94182095	     -4.33364865	    112.98893463
      2.23500000	     -7.15444493	      6.08110671	    360.13044524	     -0.57624437	      1.36887061	     -1.03146118	     -4.51944010	     -2.22744181	      2.94644786	    -12.84028610	      8.73396501	    -10.69007116	      6.51028855	     21.96734392	      6.87028192	    -10.11410564	      1.59456248	    -10.08105022	     12.14450434	     34.70678907	      7.96392955	     -4.53858745	    113.01224255
      2.24000000	     -7.23307823	      6.23091406	    360.10028213	     -0.57107592	      1.36860330	     -1.03185561	     -4.52579442	     -2.40949582	      2.97549066	    -13.28022064	      8.62912579	    -10.66372974	      6.64873084	     22.03098518	      7.04563112	     -9.82831607	      1.18666150	    -10.64357266	     11.35526496	     35.10154494	      8.04124051	     -4.75933314	    113.00246638
      2.24500000	     -7.30231615	      6.37716253	    360.04756399	     -0.56596073	      1.36841799	     -1.03222386	     -4.48980081	     -2.58656634	      3.04770239	    -13.80441295	      8.51027450	    -10.63864318	      6.84212927	     22.07425574	      7.20762759	     -9.55858151	      0.79476418	    -11.15671840	     10.62093010	     35.39498990	      8.09584908	     -4.97208158	    113.01877569
      2.25000000	     -7.38152462	      6.51207936	    359.99542041	     -0.56083961	      1.36829687	     -1.03261535	     -4.39925558	     -2.75270178	      3.11317676	    -14.40630394	      8.35059647	    -10.59598686	      7.01481482	     22.11871450	      7.35797513	     -9.28273965	      0.40244767	    -11.59276727	      9.94418442	     35.43933988	      8.16517024	     -5.15974608	    113.08317862
      2.25500000	     -7.43926843	      6.64319891	    359.95938893	     -0.55570937	      1.36826584	     -1.03303065	     -4.28996560	     -2.91719877	      3.13386144	    -15.08372214	      8.12646404	    -10.53066676	      7.30455257	     22.12357542	      7.51069378	     -8.99412121	      0.03634609	    -12.01104890	      9.26792068	     35.58537056	      8.20521370	     -5.35105012	    113.09293042
      2.26000000	     -7.48947123	      6.76414829	    359.92528426	     -0.55058048	      1.36832671	     -1.03346025	     -4.14365082	     -3.07327320	      3.14714792	    -15.83421430	      7.83183925	    -10.47607245	      7.68656991	     22.12191490	      7.65038126	     -8.72908611	     -0.34719550	    -12.37150206	      8.65463821	     35.71364139	      8.23845292	     -5.53083328	    113.12784713
      2.26500000	     -7.51592869	      6.87965645	    359.89583088	     -0.54541584	      1.36849239	     -1.03389809	     -3.98227047	     -3.22711049	      3.13689627	    -16.64382410	      7.36288477	    -10.48078432	      8.37691104	     22.08451983	      7.78446322	     -8.50013709	     -0.72460554	    -12.67564271	      8.10265231	     35.93506051	      8.24649293	     -5.70491158	    113.13616009
      2.27000000	     -7.54827432	      6.98779816	    359.86103354	     -0.54027955	      1.36872472	     -1.03435237	     -3.74399148	     -3.37693685	      3.11305982	    -17.58168238	      6.96353885	    -10.36483445	      8.80574307	     22.06138559	      7.90732730	     -8.26254150	     -1.13778949	    -12.87162935	      7.55642472	     35.81826109	      8.26156812	     -5.86106024	    113.19247556
      2.27500000	     -7.56412783	      7.08454018	    359.83073728	     -0.53511155	      1.36905493	     -1.03483648	     -3.47971045	     -3.52151339	      3.07927666	    -18.57885390	      6.38356496	    -10.29168113	      9.55789090	     22.01767785	      8.02014357	     -8.02269786	     -1.56364122	    -12.97116083	      7.02444956	     35.68992179	      8.26331351	     -6.00441452	    113.22977311
      2.28000000	     -7.56301776	      7.17935299	    359.78810673	     -0.52995985	      1.36946875	     -1.03530447	     -3.16791421	     -3.66756898	      3.04310869	    -19.67712331	      5.74684161	    -10.22866544	     10.40750425	     21.96140970	      8.12357050	     -7.82951224	     -2.01320496	    -12.99016101	      6.57169927	     35.46919506	      8.24557889	     -6.14255800	    113.27921651
      2.28500000	     -7.53244302	      7.26352825	    359.73841373	     -0.52482357	      1.36998542	     -1.03577729	     -2.82967371	     -3.80685468	      3.00907852	    -20.85702195	      5.01263238	    -10.18167216	     11.36801088	     21.87518419	      8.21451751	     -7.64676374	     -2.48047570	    -12.92052131	      6.16393870	     35.15150855	      8.19232863	     -6.26550607	    113.32988799
      2.29000000	     -7.48855003	      7.34173537	    359.68915880	     -0.51968479	      1.37056447	     -1.03626571	     -2.45007192	     -3.94609123	      2.96141176	    -22.11580549	      4.19861387	    -10.13328640	     12.43615463	     21.77628844	      8.30057140	     -7.47091400	     -2.96485687	    -12.76294308	      5.81683976	     34.74986004	      8.12930368	     -6.38033161	    113.38001833
      2.29500000	     -7.40399175	      7.41376106	    359.63026455	     -0.51459381	      1.37123341	     -1.03677246	     -2.05397051	     -4.08614676	      2.90503340	    -23.45407326	      3.32452937	    -10.09219709	     13.55308588	     21.63575496	      8.38272128	     -7.32601916	     -3.45800864	    -12.57624660	      5.48340063	     34.27592296	      8.01222834	     -6.47782093	    113.42594556
      2.30000000	     -7.32533700	      7.48076168	    359.58058037	     -0.50946269	      1.37192748	     -1.03728104	     -1.60845024	     -4.22386566	      2.85148192	    -24.84485889	      2.33340230	    -10.06748475	     14.80756061	     21.49000381	      8.46385247	     -7.15489147	     -3.94695781	    -12.28033303	      5.23474964	     33.73054065	      7.91657086	     -6.57929983	    113.46995094
      2.30500000	     -7.21534587	      7.54536313	    359.52124842	     -0.50435256	      1.37268556	     -1.03780793	     -1.14901298	     -4.36550046	      2.80760972	    -26.28474762	      1.26908827	    -10.05390206	     16.10832215	     21.29934999	      8.54545051	     -6.98250111	     -4.42010637	    -11.94454669	      5.01946432	     33.14565221	      7.78997408	     -6.66719164	    113.52186070
